<svg width="265" height="58" viewBox="0 0 265 58" fill="none" xmlns="http://www.w3.org/2000/svg">
<path d="M33.8352 23.3125H26.3693C26.233 22.3466 25.9545 21.4886 25.5341 20.7386C25.1136 19.9773 24.5739 19.3295 23.9148 18.7955C23.2557 18.2614 22.4943 17.8523 21.6307 17.5682C20.7784 17.2841 19.8523 17.142 18.8523 17.142C17.0455 17.142 15.4716 17.5909 14.1307 18.4886C12.7898 19.375 11.75 20.6705 11.0114 22.375C10.2727 24.0682 9.90341 26.125 9.90341 28.5455C9.90341 31.0341 10.2727 33.125 11.0114 34.8182C11.7614 36.5114 12.8068 37.7898 14.1477 38.6534C15.4886 39.517 17.0398 39.9489 18.8011 39.9489C19.7898 39.9489 20.7045 39.8182 21.5455 39.5568C22.3977 39.2955 23.1534 38.9148 23.8125 38.4148C24.4716 37.9034 25.017 37.2841 25.4489 36.5568C25.892 35.8295 26.1989 35 26.3693 34.0682L33.8352 34.1023C33.642 35.7045 33.1591 37.25 32.3864 38.7386C31.625 40.2159 30.5966 41.5398 29.3011 42.7102C28.017 43.8693 26.483 44.7898 24.6989 45.4716C22.9261 46.142 20.9205 46.4773 18.6818 46.4773C15.5682 46.4773 12.7841 45.7727 10.3295 44.3636C7.88636 42.9545 5.95455 40.9148 4.53409 38.2443C3.125 35.5739 2.42045 32.3409 2.42045 28.5455C2.42045 24.7386 3.13636 21.5 4.56818 18.8295C6 16.1591 7.94318 14.125 10.3977 12.7273C12.8523 11.3182 15.6136 10.6136 18.6818 10.6136C20.7045 10.6136 22.5795 10.8977 24.3068 11.4659C26.0455 12.0341 27.5852 12.8636 28.9261 13.9545C30.267 15.0341 31.358 16.358 32.1989 17.9261C33.0511 19.4943 33.5966 21.2898 33.8352 23.3125ZM44.4886 46H36.5795L48.6307 11.0909H58.142L70.1761 46H62.267L53.5227 19.0682H53.25L44.4886 46ZM43.9943 32.2784H62.6761V38.0398H43.9943V32.2784ZM74.3778 46V11.0909H88.1506C90.7869 11.0909 93.0369 11.5625 94.9006 12.5057C96.7756 13.4375 98.2017 14.7614 99.179 16.4773C100.168 18.1818 100.662 20.1875 100.662 22.4943C100.662 24.8125 100.162 26.8068 99.1619 28.4773C98.1619 30.1364 96.7131 31.4091 94.8153 32.2955C92.929 33.1818 90.6449 33.625 87.9631 33.625H78.7415V27.6932H86.7699C88.179 27.6932 89.3494 27.5 90.2812 27.1136C91.2131 26.7273 91.9063 26.1477 92.3608 25.375C92.8267 24.6023 93.0597 23.642 93.0597 22.4943C93.0597 21.3352 92.8267 20.358 92.3608 19.5625C91.9063 18.767 91.2074 18.1648 90.2642 17.7557C89.3324 17.3352 88.1563 17.125 86.7358 17.125H81.7585V46H74.3778ZM93.2301 30.1136L101.906 46H93.7585L85.2699 30.1136H93.2301ZM105.878 46V11.0909H119.651C122.287 11.0909 124.537 11.5625 126.401 12.5057C128.276 13.4375 129.702 14.7614 130.679 16.4773C131.668 18.1818 132.162 20.1875 132.162 22.4943C132.162 24.8125 131.662 26.8068 130.662 28.4773C129.662 30.1364 128.213 31.4091 126.315 32.2955C124.429 33.1818 122.145 33.625 119.463 33.625H110.241V27.6932H118.27C119.679 27.6932 120.849 27.5 121.781 27.1136C122.713 26.7273 123.406 26.1477 123.861 25.375C124.327 24.6023 124.56 23.642 124.56 22.4943C124.56 21.3352 124.327 20.358 123.861 19.5625C123.406 18.767 122.707 18.1648 121.764 17.7557C120.832 17.3352 119.656 17.125 118.236 17.125H113.259V46H105.878ZM124.73 30.1136L133.406 46H125.259L116.77 30.1136H124.73Z" fill="#F7944C"/>
<path d="M137.378 46V11.0909H151.151C153.798 11.0909 156.054 11.5966 157.918 12.608C159.781 13.608 161.202 15 162.179 16.7841C163.168 18.5568 163.662 20.6023 163.662 22.9205C163.662 25.2386 163.162 27.2841 162.162 29.0568C161.162 30.8295 159.713 32.2102 157.815 33.1989C155.929 34.1875 153.645 34.6818 150.963 34.6818H142.185V28.767H149.77C151.19 28.767 152.361 28.5227 153.281 28.0341C154.213 27.5341 154.906 26.8466 155.361 25.9716C155.827 25.0852 156.06 24.0682 156.06 22.9205C156.06 21.7614 155.827 20.75 155.361 19.8864C154.906 19.0114 154.213 18.3352 153.281 17.858C152.349 17.3693 151.168 17.125 149.736 17.125H144.759V46H137.378ZM168.456 46V11.0909H175.837V39.9148H190.803V46H168.456ZM202.598 46H194.689L206.74 11.0909H216.251L228.286 46H220.376L211.632 19.0682H211.359L202.598 46ZM202.104 32.2784H220.786V38.0398H202.104V32.2784ZM261.686 11.0909V46H255.311L240.124 24.0284H239.868V46H232.487V11.0909H238.964L254.033 33.0455H254.339V11.0909H261.686Z" fill="black"/>
</svg>
